<svg xmlns="http://www.w3.org/2000/svg" xmlns:xlink="http://www.w3.org/1999/xlink" width="500" zoomAndPan="magnify" viewBox="0 0 375 374.999991" height="500" preserveAspectRatio="xMidYMid meet" version="1.0"><defs><g/></defs><g fill="#0cc14c" fill-opacity="1"><g transform="translate(96.268797, 208.177179)"><g><path d="M 13.75 0.359375 C 10.382812 0.359375 7.648438 -0.445312 5.546875 -2.0625 C 3.441406 -3.675781 2.390625 -5.835938 2.390625 -8.546875 C 2.390625 -9.066406 2.410156 -9.445312 2.453125 -9.6875 L 7.140625 -9.6875 C 7.035156 -7.988281 7.554688 -6.53125 8.703125 -5.3125 C 9.847656 -4.09375 11.601562 -3.484375 13.96875 -3.484375 C 16.332031 -3.484375 18.207031 -4.019531 19.59375 -5.09375 C 20.976562 -6.175781 21.671875 -7.691406 21.671875 -9.640625 C 21.671875 -10.816406 21.332031 -11.8125 20.65625 -12.625 C 19.976562 -13.445312 19.144531 -14.125 18.15625 -14.65625 C 17.164062 -15.195312 15.820312 -15.800781 14.125 -16.46875 C 12.039062 -17.300781 10.363281 -18.082031 9.09375 -18.8125 C 7.820312 -19.539062 6.75 -20.53125 5.875 -21.78125 C 5.007812 -23.03125 4.613281 -24.613281 4.6875 -26.53125 C 4.6875 -28.539062 5.222656 -30.328125 6.296875 -31.890625 C 7.378906 -33.453125 8.863281 -34.660156 10.75 -35.515625 C 12.644531 -36.367188 14.8125 -36.796875 17.25 -36.796875 C 19.613281 -36.796875 21.65625 -36.394531 23.375 -35.59375 C 25.09375 -34.789062 26.382812 -33.675781 27.25 -32.25 C 28.125 -30.832031 28.507812 -29.238281 28.40625 -27.46875 L 23.453125 -27.46875 C 23.515625 -28.363281 23.3125 -29.226562 22.84375 -30.0625 C 22.375 -30.894531 21.644531 -31.570312 20.65625 -32.09375 C 19.664062 -32.613281 18.441406 -32.875 16.984375 -32.875 C 14.722656 -32.875 12.90625 -32.34375 11.53125 -31.28125 C 10.164062 -30.226562 9.484375 -28.78125 9.484375 -26.9375 C 9.484375 -25.863281 9.800781 -24.9375 10.4375 -24.15625 C 11.082031 -23.375 11.890625 -22.710938 12.859375 -22.171875 C 13.835938 -21.628906 15.179688 -20.992188 16.890625 -20.265625 C 18.929688 -19.398438 20.601562 -18.59375 21.90625 -17.84375 C 23.207031 -17.101562 24.3125 -16.101562 25.21875 -14.84375 C 26.125 -13.59375 26.578125 -12.03125 26.578125 -10.15625 C 26.578125 -8.144531 26.054688 -6.347656 25.015625 -4.765625 C 23.972656 -3.179688 22.476562 -1.929688 20.53125 -1.015625 C 18.582031 -0.0976562 16.320312 0.359375 13.75 0.359375 Z M 13.75 0.359375 "/></g></g></g><g fill="#0cc14c" fill-opacity="1"><g transform="translate(126.591896, 208.177179)"><g><path d="M 11.875 -32.625 L 9.6875 -20.171875 L 22.875 -20.171875 L 22.25 -16.515625 L 9.0625 -16.515625 L 6.78125 -3.75 L 21.578125 -3.75 L 20.890625 0 L 1.359375 0 L 7.8125 -36.375 L 27.3125 -36.375 L 26.625 -32.625 Z M 11.875 -32.625 "/></g></g></g><g fill="#0cc14c" fill-opacity="1"><g transform="translate(153.319993, 208.177179)"><g><path d="M 29.90625 0 L 25.171875 0 L 11.25 -28.921875 L 6.09375 0 L 1.359375 0 L 7.8125 -36.375 L 12.5625 -36.375 L 26.53125 -7.5 L 31.625 -36.375 L 36.375 -36.375 Z M 29.90625 0 "/></g></g></g><g fill="#0cc14c" fill-opacity="1"><g transform="translate(189.947379, 208.177179)"><g><path d="M 19.125 -36.3125 C 24.300781 -36.3125 28.320312 -35.0625 31.1875 -32.5625 C 34.050781 -30.0625 35.484375 -26.585938 35.484375 -22.140625 C 35.484375 -20.753906 35.363281 -19.398438 35.125 -18.078125 C 34.457031 -14.359375 33.109375 -11.132812 31.078125 -8.40625 C 29.046875 -5.6875 26.457031 -3.601562 23.3125 -2.15625 C 20.175781 -0.71875 16.625 0 12.65625 0 L 1.359375 0 L 7.8125 -36.3125 Z M 13.34375 -3.640625 C 18 -3.640625 21.785156 -4.914062 24.703125 -7.46875 C 27.617188 -10.03125 29.476562 -13.566406 30.28125 -18.078125 C 30.488281 -19.328125 30.59375 -20.507812 30.59375 -21.625 C 30.59375 -25.0625 29.566406 -27.726562 27.515625 -29.625 C 25.460938 -31.519531 22.441406 -32.46875 18.453125 -32.46875 L 11.875 -32.46875 L 6.78125 -3.640625 Z M 13.34375 -3.640625 "/></g></g></g><g fill="#0cc14c" fill-opacity="1"><g transform="translate(226.783173, 208.177179)"><g><path d="M 2.8125 0.3125 C 2.007812 0.3125 1.359375 0.0703125 0.859375 -0.40625 C 0.359375 -0.894531 0.109375 -1.539062 0.109375 -2.34375 C 0.109375 -3.382812 0.488281 -4.28125 1.25 -5.03125 C 2.007812 -5.78125 2.910156 -6.15625 3.953125 -6.15625 C 4.753906 -6.15625 5.398438 -5.910156 5.890625 -5.421875 C 6.378906 -4.929688 6.625 -4.285156 6.625 -3.484375 C 6.625 -2.441406 6.238281 -1.546875 5.46875 -0.796875 C 4.707031 -0.0546875 3.820312 0.3125 2.8125 0.3125 Z M 2.8125 0.3125 "/></g></g></g><g fill="#0cc14c" fill-opacity="1"><g transform="translate(237.724502, 208.177179)"><g><path d="M 12.5625 -36.3125 L 6.09375 0 L 1.359375 0 L 7.8125 -36.3125 Z M 12.5625 -36.3125 "/></g></g></g><g fill="#0cc14c" fill-opacity="1"><g transform="translate(250.541484, 208.177179)"><g><path d="M 30.125 -36.3125 L 29.4375 -32.625 L 19.546875 -32.625 L 13.8125 0 L 9.0625 0 L 14.796875 -32.625 L 4.890625 -32.625 L 5.578125 -36.3125 Z M 30.125 -36.3125 "/></g></g></g><g fill="#0cc14c" fill-opacity="1"><g transform="translate(187.499263, 280.927174)"><g/></g></g><g fill="#0cc14c" fill-opacity="1"><g transform="translate(105.599295, 231.018573)"><g><path d="M 3.484375 -8.265625 C 4.390625 -8.265625 5.171875 -8.097656 5.828125 -7.765625 C 6.484375 -7.429688 6.988281 -6.953125 7.34375 -6.328125 C 7.695312 -5.703125 7.875 -4.960938 7.875 -4.109375 C 7.875 -3.265625 7.695312 -2.53125 7.34375 -1.90625 C 6.988281 -1.289062 6.484375 -0.816406 5.828125 -0.484375 C 5.171875 -0.160156 4.390625 0 3.484375 0 L 0.90625 0 L 0.90625 -8.265625 Z M 3.484375 -0.890625 C 4.554688 -0.890625 5.367188 -1.171875 5.921875 -1.734375 C 6.484375 -2.296875 6.765625 -3.085938 6.765625 -4.109375 C 6.765625 -5.140625 6.484375 -5.941406 5.921875 -6.515625 C 5.359375 -7.097656 4.546875 -7.390625 3.484375 -7.390625 L 2 -7.390625 L 2 -0.890625 Z M 3.484375 -0.890625 "/></g></g></g><g fill="#0cc14c" fill-opacity="1"><g transform="translate(118.139481, 231.018573)"><g><path d="M 2 -7.390625 L 2 -4.625 L 5 -4.625 L 5 -3.734375 L 2 -3.734375 L 2 -0.890625 L 5.359375 -0.890625 L 5.359375 0 L 0.90625 0 L 0.90625 -8.28125 L 5.359375 -8.28125 L 5.359375 -7.390625 Z M 2 -7.390625 "/></g></g></g><g fill="#0cc14c" fill-opacity="1"><g transform="translate(128.381213, 231.018573)"><g><path d="M 2 -0.875 L 4.890625 -0.875 L 4.890625 0 L 0.90625 0 L 0.90625 -8.265625 L 2 -8.265625 Z M 2 -0.875 "/></g></g></g><g fill="#0cc14c" fill-opacity="1"><g transform="translate(137.663289, 231.018573)"><g><path d="M 2 -8.265625 L 2 0 L 0.90625 0 L 0.90625 -8.265625 Z M 2 -8.265625 "/></g></g></g><g fill="#0cc14c" fill-opacity="1"><g transform="translate(144.741691, 231.018573)"><g><path d="M 7.75 -8.265625 L 4.625 0 L 3.375 0 L 0.265625 -8.265625 L 1.40625 -8.265625 L 4.015625 -1.140625 L 6.609375 -8.265625 Z M 7.75 -8.265625 "/></g></g></g><g fill="#0cc14c" fill-opacity="1"><g transform="translate(156.914599, 231.018573)"><g><path d="M 2 -7.390625 L 2 -4.625 L 5 -4.625 L 5 -3.734375 L 2 -3.734375 L 2 -0.890625 L 5.359375 -0.890625 L 5.359375 0 L 0.90625 0 L 0.90625 -8.28125 L 5.359375 -8.28125 L 5.359375 -7.390625 Z M 2 -7.390625 "/></g></g></g><g fill="#0cc14c" fill-opacity="1"><g transform="translate(167.156328, 231.018573)"><g><path d="M 5.265625 0 L 3.296875 -3.375 L 2 -3.375 L 2 0 L 0.90625 0 L 0.90625 -8.265625 L 3.578125 -8.265625 C 4.203125 -8.265625 4.726562 -8.15625 5.15625 -7.9375 C 5.59375 -7.726562 5.914062 -7.441406 6.125 -7.078125 C 6.34375 -6.710938 6.453125 -6.296875 6.453125 -5.828125 C 6.453125 -5.265625 6.285156 -4.765625 5.953125 -4.328125 C 5.628906 -3.890625 5.140625 -3.601562 4.484375 -3.46875 L 6.5625 0 Z M 2 -4.25 L 3.578125 -4.25 C 4.160156 -4.25 4.597656 -4.390625 4.890625 -4.671875 C 5.191406 -4.960938 5.34375 -5.347656 5.34375 -5.828125 C 5.34375 -6.316406 5.195312 -6.695312 4.90625 -6.96875 C 4.613281 -7.238281 4.171875 -7.375 3.578125 -7.375 L 2 -7.375 Z M 2 -4.25 "/></g></g></g><g fill="#0cc14c" fill-opacity="1"><g transform="translate(178.523595, 231.018573)"><g><path d="M 6.703125 -8.265625 L 4.015625 -3.125 L 4.015625 0 L 2.921875 0 L 2.921875 -3.125 L 0.21875 -8.265625 L 1.421875 -8.265625 L 3.46875 -4.078125 L 5.5 -8.265625 Z M 6.703125 -8.265625 "/></g></g></g><g fill="#0cc14c" fill-opacity="1"><g transform="translate(189.60651, 231.018573)"><g/></g></g><g fill="#0cc14c" fill-opacity="1"><g transform="translate(196.933715, 231.018573)"><g><path d="M 2 -7.390625 L 2 -4.625 L 5 -4.625 L 5 -3.734375 L 2 -3.734375 L 2 -0.890625 L 5.359375 -0.890625 L 5.359375 0 L 0.90625 0 L 0.90625 -8.28125 L 5.359375 -8.28125 L 5.359375 -7.390625 Z M 2 -7.390625 "/></g></g></g><g fill="#0cc14c" fill-opacity="1"><g transform="translate(207.175444, 231.018573)"><g><path d="M 4.296875 -4.125 L 6.828125 0 L 5.609375 0 L 3.625 -3.21875 L 1.75 0 L 0.546875 0 L 3.078125 -4.125 L 0.53125 -8.265625 L 1.75 -8.265625 L 3.734375 -5.03125 L 5.640625 -8.265625 L 6.84375 -8.265625 Z M 4.296875 -4.125 "/></g></g></g><g fill="#0cc14c" fill-opacity="1"><g transform="translate(218.696726, 231.018573)"><g><path d="M 6.4375 -5.84375 C 6.4375 -5.15625 6.203125 -4.582031 5.734375 -4.125 C 5.265625 -3.675781 4.546875 -3.453125 3.578125 -3.453125 L 2 -3.453125 L 2 0 L 0.90625 0 L 0.90625 -8.265625 L 3.578125 -8.265625 C 4.515625 -8.265625 5.222656 -8.035156 5.703125 -7.578125 C 6.191406 -7.128906 6.4375 -6.550781 6.4375 -5.84375 Z M 3.578125 -4.34375 C 4.179688 -4.34375 4.625 -4.472656 4.90625 -4.734375 C 5.195312 -4.992188 5.34375 -5.363281 5.34375 -5.84375 C 5.34375 -6.863281 4.753906 -7.375 3.578125 -7.375 L 2 -7.375 L 2 -4.34375 Z M 3.578125 -4.34375 "/></g></g></g><g fill="#0cc14c" fill-opacity="1"><g transform="translate(229.720407, 231.018573)"><g><path d="M 5.265625 0 L 3.296875 -3.375 L 2 -3.375 L 2 0 L 0.90625 0 L 0.90625 -8.265625 L 3.578125 -8.265625 C 4.203125 -8.265625 4.726562 -8.15625 5.15625 -7.9375 C 5.59375 -7.726562 5.914062 -7.441406 6.125 -7.078125 C 6.34375 -6.710938 6.453125 -6.296875 6.453125 -5.828125 C 6.453125 -5.265625 6.285156 -4.765625 5.953125 -4.328125 C 5.628906 -3.890625 5.140625 -3.601562 4.484375 -3.46875 L 6.5625 0 Z M 2 -4.25 L 3.578125 -4.25 C 4.160156 -4.25 4.597656 -4.390625 4.890625 -4.671875 C 5.191406 -4.960938 5.34375 -5.347656 5.34375 -5.828125 C 5.34375 -6.316406 5.195312 -6.695312 4.90625 -6.96875 C 4.613281 -7.238281 4.171875 -7.375 3.578125 -7.375 L 2 -7.375 Z M 2 -4.25 "/></g></g></g><g fill="#0cc14c" fill-opacity="1"><g transform="translate(241.087674, 231.018573)"><g><path d="M 2 -7.390625 L 2 -4.625 L 5 -4.625 L 5 -3.734375 L 2 -3.734375 L 2 -0.890625 L 5.359375 -0.890625 L 5.359375 0 L 0.90625 0 L 0.90625 -8.28125 L 5.359375 -8.28125 L 5.359375 -7.390625 Z M 2 -7.390625 "/></g></g></g><g fill="#0cc14c" fill-opacity="1"><g transform="translate(251.329403, 231.018573)"><g><path d="M 3.53125 0.078125 C 2.988281 0.078125 2.5 -0.015625 2.0625 -0.203125 C 1.632812 -0.398438 1.296875 -0.671875 1.046875 -1.015625 C 0.804688 -1.359375 0.679688 -1.753906 0.671875 -2.203125 L 1.828125 -2.203125 C 1.867188 -1.816406 2.03125 -1.488281 2.3125 -1.21875 C 2.59375 -0.957031 3 -0.828125 3.53125 -0.828125 C 4.050781 -0.828125 4.457031 -0.953125 4.75 -1.203125 C 5.039062 -1.460938 5.1875 -1.796875 5.1875 -2.203125 C 5.1875 -2.523438 5.097656 -2.78125 4.921875 -2.96875 C 4.753906 -3.164062 4.539062 -3.316406 4.28125 -3.421875 C 4.019531 -3.523438 3.664062 -3.640625 3.21875 -3.765625 C 2.675781 -3.898438 2.238281 -4.039062 1.90625 -4.1875 C 1.582031 -4.332031 1.300781 -4.554688 1.0625 -4.859375 C 0.832031 -5.160156 0.71875 -5.566406 0.71875 -6.078125 C 0.71875 -6.535156 0.832031 -6.9375 1.0625 -7.28125 C 1.289062 -7.625 1.613281 -7.890625 2.03125 -8.078125 C 2.445312 -8.273438 2.925781 -8.375 3.46875 -8.375 C 4.238281 -8.375 4.867188 -8.175781 5.359375 -7.78125 C 5.859375 -7.394531 6.140625 -6.882812 6.203125 -6.25 L 5.015625 -6.25 C 4.972656 -6.5625 4.804688 -6.835938 4.515625 -7.078125 C 4.222656 -7.328125 3.835938 -7.453125 3.359375 -7.453125 C 2.910156 -7.453125 2.539062 -7.332031 2.25 -7.09375 C 1.96875 -6.863281 1.828125 -6.539062 1.828125 -6.125 C 1.828125 -5.820312 1.910156 -5.570312 2.078125 -5.375 C 2.253906 -5.1875 2.460938 -5.039062 2.703125 -4.9375 C 2.953125 -4.84375 3.304688 -4.734375 3.765625 -4.609375 C 4.304688 -4.460938 4.742188 -4.316406 5.078125 -4.171875 C 5.410156 -4.023438 5.691406 -3.796875 5.921875 -3.484375 C 6.160156 -3.179688 6.28125 -2.769531 6.28125 -2.25 C 6.28125 -1.851562 6.171875 -1.472656 5.953125 -1.109375 C 5.742188 -0.753906 5.429688 -0.46875 5.015625 -0.25 C 4.597656 -0.03125 4.101562 0.078125 3.53125 0.078125 Z M 3.53125 0.078125 "/></g></g></g><g fill="#0cc14c" fill-opacity="1"><g transform="translate(262.447863, 231.018573)"><g><path d="M 3.53125 0.078125 C 2.988281 0.078125 2.5 -0.015625 2.0625 -0.203125 C 1.632812 -0.398438 1.296875 -0.671875 1.046875 -1.015625 C 0.804688 -1.359375 0.679688 -1.753906 0.671875 -2.203125 L 1.828125 -2.203125 C 1.867188 -1.816406 2.03125 -1.488281 2.3125 -1.21875 C 2.59375 -0.957031 3 -0.828125 3.53125 -0.828125 C 4.050781 -0.828125 4.457031 -0.953125 4.75 -1.203125 C 5.039062 -1.460938 5.1875 -1.796875 5.1875 -2.203125 C 5.1875 -2.523438 5.097656 -2.78125 4.921875 -2.96875 C 4.753906 -3.164062 4.539062 -3.316406 4.28125 -3.421875 C 4.019531 -3.523438 3.664062 -3.640625 3.21875 -3.765625 C 2.675781 -3.898438 2.238281 -4.039062 1.90625 -4.1875 C 1.582031 -4.332031 1.300781 -4.554688 1.0625 -4.859375 C 0.832031 -5.160156 0.71875 -5.566406 0.71875 -6.078125 C 0.71875 -6.535156 0.832031 -6.9375 1.0625 -7.28125 C 1.289062 -7.625 1.613281 -7.890625 2.03125 -8.078125 C 2.445312 -8.273438 2.925781 -8.375 3.46875 -8.375 C 4.238281 -8.375 4.867188 -8.175781 5.359375 -7.78125 C 5.859375 -7.394531 6.140625 -6.882812 6.203125 -6.25 L 5.015625 -6.25 C 4.972656 -6.5625 4.804688 -6.835938 4.515625 -7.078125 C 4.222656 -7.328125 3.835938 -7.453125 3.359375 -7.453125 C 2.910156 -7.453125 2.539062 -7.332031 2.25 -7.09375 C 1.96875 -6.863281 1.828125 -6.539062 1.828125 -6.125 C 1.828125 -5.820312 1.910156 -5.570312 2.078125 -5.375 C 2.253906 -5.1875 2.460938 -5.039062 2.703125 -4.9375 C 2.953125 -4.84375 3.304688 -4.734375 3.765625 -4.609375 C 4.304688 -4.460938 4.742188 -4.316406 5.078125 -4.171875 C 5.410156 -4.023438 5.691406 -3.796875 5.921875 -3.484375 C 6.160156 -3.179688 6.28125 -2.769531 6.28125 -2.25 C 6.28125 -1.851562 6.171875 -1.472656 5.953125 -1.109375 C 5.742188 -0.753906 5.429688 -0.46875 5.015625 -0.25 C 4.597656 -0.03125 4.101562 0.078125 3.53125 0.078125 Z M 3.53125 0.078125 "/></g></g></g></svg>